<svg width="32" height="32" viewBox="0 0 32 32" fill="none" xmlns="http://www.w3.org/2000/svg">
  <circle cx="16" cy="16" r="16" fill="#0A66C2"/>
  <path d="M12.6667 9.33333C12.6667 10.2538 11.9205 11 11 11C10.0795 11 9.33333 10.2538 9.33333 9.33333C9.33333 8.41286 10.0795 7.66667 11 7.66667C11.9205 7.66667 12.6667 8.41286 12.6667 9.33333Z" fill="white"/>
  <path d="M9.33333 12.6667H12.6667V22.6667H9.33333V12.6667Z" fill="white"/>
  <path d="M17.3333 12.6667C17.3333 12.6667 16.6667 14 16.6667 15.3333C16.6667 16.6667 17.3333 18 19.3333 18C21.3333 18 22.6667 16.6667 22.6667 15.3333V12.6667H19.3333C18 12.6667 17.3333 12.6667 17.3333 12.6667Z" fill="white"/>
  <path d="M16.6667 18.6667V22.6667H19.3333C20.6667 22.6667 22.6667 21.3333 22.6667 20V18.6667C22.6667 18.6667 21.3333 20 19.3333 20C17.3333 20 16.6667 18.6667 16.6667 18.6667Z" fill="white"/>
</svg> 