<svg width="30" height="30" viewBox="0 0 30 30" fill="none" xmlns="http://www.w3.org/2000/svg">
<g clip-path="url(#clip0_1008_2452)">
<path d="M6 9.59473H1V24.5947H6V9.59473Z" stroke="#14948A" stroke-miterlimit="10" stroke-linecap="round"/>
<path d="M6 11.0048C6 11.0048 7.22144 9.94393 9.08808 8.96731C10.9547 7.99069 12.25 5.86889 12.4126 2.68619C12.5751 -0.496504 15.9784 0.321479 15.9784 2.68619C15.9784 5.05091 16.1409 9.37383 15.5745 12.15C15.0081 14.9262 15.0968 18.5947 10.5509 18.5947" stroke="#14948A" stroke-miterlimit="10" stroke-linecap="round"/>
<path d="M16 11.5947C16 11.5947 26.2727 11.5947 28.2189 11.5947C30.6183 11.5947 30.569 14.5947 28.2189 14.5947C25.8687 14.5947 22.3016 14.5947 22.3016 14.5947" stroke="#14948A" stroke-miterlimit="10" stroke-linecap="round"/>
<path d="M20.2192 17.5947H17.7808C16.7943 17.5947 16 16.7169 16 15.6392V15.5503C16 14.4669 16.7993 13.5947 17.7808 13.5947H20.2192C21.2057 13.5947 22 14.4725 22 15.5503V15.6392C22 16.7169 21.2057 17.5947 20.2192 17.5947Z" stroke="#14948A" stroke-miterlimit="10" stroke-linecap="round"/>
<path d="M20.2192 21.5947H17.7808C16.7943 21.5947 16 20.7169 16 19.6392V19.5503C16 18.4669 16.7993 17.5947 17.7808 17.5947H20.2192C21.2057 17.5947 22 18.4725 22 19.5503V19.6392C22 20.7169 21.2057 21.5947 20.2192 21.5947Z" stroke="#14948A" stroke-miterlimit="10" stroke-linecap="round"/>
<path d="M19.2192 24.5947H16.7808C15.7943 24.5947 15 23.9364 15 23.1281V23.0614C15 22.2489 15.7993 21.5947 16.7808 21.5947H19.2192C20.2057 21.5947 21 22.2531 21 23.0614V23.1281C21.005 23.9406 20.2057 24.5947 19.2192 24.5947Z" stroke="#14948A" stroke-miterlimit="10" stroke-linecap="round"/>
<path d="M6 21.5947C6 21.5947 8.2435 24.5947 12.9661 24.5947C17.6887 24.5947 19 24.5947 19 24.5947" stroke="#14948A" stroke-miterlimit="10" stroke-linecap="round"/>
<rect x="2" y="14.5947" width="3" height="5" rx="1.5" fill="#FCD34D"/>
</g>
<defs>
<clipPath id="clip0_1008_2452">
<rect width="30" height="30" fill="white"/>
</clipPath>
</defs>
</svg>
