<svg width="31" height="31" viewBox="0 0 31 31" fill="none" xmlns="http://www.w3.org/2000/svg">
<g clip-path="url(#clip0_248_17850)">
<path d="M27.0998 3.5C28.7798 3.5 30.1398 4.86 30.1398 6.54V21.32C30.1398 23 28.7798 24.36 27.0998 24.36H26.7598V29.2L21.9198 24.36H12.1698H9.08984" stroke="url(#paint0_linear_248_17850)" stroke-miterlimit="10"/>
<path d="M22.55 0.5H3.54C1.86 0.5 0.5 1.86 0.5 3.54V18.32C0.5 20 1.86 21.36 3.54 21.36H4.88V26.2L9.72 21.36H22.55C24.23 21.36 25.59 20 25.59 18.32V3.54C25.6 1.86 24.24 0.5 22.55 0.5Z" stroke="#14948A" stroke-miterlimit="10"/>
<path d="M11.7398 13.59C11.7398 12.77 11.8398 12.11 12.0398 11.63C12.2398 11.14 12.5998 10.66 13.1298 10.19C13.6598 9.72004 14.0098 9.33004 14.1898 9.04004C14.3698 8.74004 14.4498 8.43004 14.4498 8.10004C14.4498 7.11004 13.9898 6.61004 13.0798 6.61004C12.6498 6.61004 12.2998 6.74004 12.0398 7.01004C11.7798 7.28004 11.6398 7.65004 11.6298 8.12004H9.08984C9.09984 7.00004 9.45984 6.12004 10.1798 5.49004C10.8898 4.86004 11.8598 4.54004 13.0998 4.54004C14.3398 4.54004 15.3098 4.84004 15.9898 5.44004C16.6798 6.04004 17.0198 6.89004 17.0198 7.99004C17.0198 8.49004 16.9098 8.96004 16.6898 9.40004C16.4698 9.84004 16.0798 10.33 15.5198 10.87L14.8098 11.55C14.3598 11.98 14.1098 12.48 14.0498 13.06L14.0098 13.6H11.7398V13.59ZM11.4898 16.28C11.4898 15.89 11.6198 15.57 11.8898 15.31C12.1598 15.06 12.4998 14.93 12.9098 14.93C13.3298 14.93 13.6698 15.06 13.9298 15.31C14.1998 15.56 14.3298 15.89 14.3298 16.28C14.3298 16.67 14.1998 16.99 13.9398 17.24C13.6798 17.49 13.3298 17.62 12.9098 17.62C12.4798 17.62 12.1398 17.49 11.8798 17.24C11.6198 16.99 11.4898 16.67 11.4898 16.28Z" fill="url(#paint1_linear_248_17850)"/>
</g>
<defs>
<linearGradient id="paint0_linear_248_17850" x1="19.6148" y1="3.5" x2="19.6148" y2="29.2" gradientUnits="userSpaceOnUse">
<stop stop-color="#FFDD78"/>
<stop offset="1" stop-color="#E8AF1E"/>
</linearGradient>
<linearGradient id="paint1_linear_248_17850" x1="13.0548" y1="4.54004" x2="13.0548" y2="17.62" gradientUnits="userSpaceOnUse">
<stop stop-color="#FFDD78"/>
<stop offset="1" stop-color="#E8AF1E"/>
</linearGradient>
<clipPath id="clip0_248_17850">
<rect width="30.64" height="30.42" fill="white"/>
</clipPath>
</defs>
</svg>
